<?xml version="1.0" standalone="no"?>
<!DOCTYPE svg PUBLIC "-//W3C//DTD SVG 20010904//EN"
 "http://www.w3.org/TR/2001/REC-SVG-20010904/DTD/svg10.dtd">
<svg version="1.0" xmlns="http://www.w3.org/2000/svg"
 width="512.000000pt" height="512.000000pt" viewBox="0 0 512.000000 512.000000"
 preserveAspectRatio="xMidYMid meet">
<metadata>
Created by potrace 1.16, written by Peter Selinger 2001-2019
</metadata>
<g transform="translate(0.000000,512.000000) scale(0.100000,-0.100000)"
fill="#000000" stroke="none">
<path d="M2428 4640 c-101 -12 -266 -54 -332 -85 -120 -57 -128 -107 -40 -253
33 -53 84 -128 115 -167 64 -81 183 -195 203 -195 9 0 18 -23 26 -67 6 -38 26
-120 45 -183 65 -227 66 -242 70 -1290 4 -913 -4 -1672 -16 -1684 -3 -4 -113
-11 -245 -16 -318 -13 -310 -12 -219 -21 91 -8 1324 -10 1398 -2 34 4 45 9 35
15 -9 7 -3 8 19 4 27 -4 36 0 62 29 17 19 46 59 64 88 47 73 66 90 94 84 19
-4 23 -1 17 12 -23 53 -43 156 -43 231 -1 132 19 287 40 306 17 15 17 18 -3
68 -19 49 -19 58 -8 187 9 100 10 150 2 185 -33 149 -35 177 -19 231 14 47 14
59 1 115 -8 35 -19 70 -23 78 -8 16 -7 47 5 94 4 17 2 31 -4 35 -23 14 -25
200 -3 396 24 219 27 262 22 365 l-4 75 -7 -70 c-10 -105 -48 -343 -64 -403
-17 -64 -16 -55 -16 -98 0 -21 -4 -33 -10 -29 -12 8 -12 -8 0 -60 25 -105 43
-383 44 -675 2 -603 -8 -816 -48 -945 -36 -121 -44 -134 -84 -141 -34 -7 -190
0 -312 13 l-59 6 -3 -79 -3 -79 -202 -5 c-110 -3 -230 -3 -265 0 l-63 5 -1
1277 c0 702 2 1275 5 1273 3 -1 6 32 7 74 0 50 -2 66 -6 46 -7 -27 -8 -27 -8
-5 0 14 3 34 7 44 7 19 8 18 15 -5 7 -23 7 -23 17 -4 6 11 27 29 47 40 20 11
37 26 37 33 0 7 14 23 30 36 45 36 26 40 -25 6 -52 -34 -66 -37 -74 -12 -3 9
-4 5 -2 -10 2 -16 -1 -28 -5 -28 -5 0 -10 -12 -10 -27 -1 -21 -3 -22 -6 -8 -4
20 13 104 71 355 26 110 29 116 70 152 49 42 221 243 279 323 l37 53 -52 25
c-95 44 -146 51 -345 43 l-183 -7 7 63 c3 35 10 65 14 68 5 3 -22 6 -59 7 -64
0 -64 0 -17 -6 l50 -7 -72 -8 c-67 -7 -73 -10 -102 -46 -17 -22 -31 -45 -31
-53 0 -17 -22 -27 -53 -26 -16 0 -18 2 -7 7 16 7 20 58 7 80 -5 8 0 15 15 21
15 6 29 25 41 59 9 27 24 53 33 56 25 9 28 0 10 -26 -21 -29 -21 -68 0 -68 8
0 27 14 41 31 20 23 32 29 49 25 13 -4 43 1 66 9 50 17 84 19 93 5 4 -7 13 -6
27 1 11 6 31 8 44 5 18 -5 24 -2 24 10 0 12 5 15 23 9 43 -14 107 -13 107 2 0
7 6 14 13 14 6 1 -6 5 -28 9 -66 14 -285 19 -367 10z m-168 -76 c0 -15 -33
-74 -42 -74 -5 0 -6 -5 -2 -12 5 -7 3 -8 -5 -4 -7 5 -10 11 -7 14 4 3 -1 16
-10 30 -8 13 -14 25 -12 26 25 21 78 34 78 20z m328 -732 c3 -27 0 -32 -17
-32 -16 0 -21 6 -21 26 0 19 4 25 15 20 8 -3 15 -1 15 4 0 5 -8 11 -17 14 -14
4 -14 4 2 3 15 -2 21 -11 23 -35z m-1 -534 c-2 -13 -4 -5 -4 17 -1 22 1 32 4
23 2 -10 2 -28 0 -40z m-27 -2590 c0 -13 -18 -9 -34 8 -22 22 -20 24 9 11 14
-7 25 -15 25 -19z m773 -15 c-18 -2 -48 -2 -65 0 -18 2 -4 4 32 4 36 0 50 -2
33 -4z"/>
<path d="M2880 4590 c0 -6 7 -10 15 -10 8 0 15 2 15 4 0 2 -7 6 -15 10 -8 3
-15 1 -15 -4z"/>
<path d="M2683 4523 c9 -2 25 -2 35 0 9 3 1 5 -18 5 -19 0 -27 -2 -17 -5z"/>
<path d="M2552 4493 c-12 -22 -26 -100 -17 -92 7 8 35 109 29 109 -2 0 -7 -8
-12 -17z"/>
<path d="M3202 4340 c0 -19 2 -27 5 -17 2 9 2 25 0 35 -3 9 -5 1 -5 -18z"/>
<path d="M1911 4294 c0 -11 3 -14 6 -6 3 7 2 16 -1 19 -3 4 -6 -2 -5 -13z"/>
<path d="M3317 4110 c5 -66 3 -89 -11 -114 -19 -36 -96 -91 -141 -102 -16 -4
-63 -22 -104 -41 -83 -37 -151 -53 -151 -34 0 7 12 29 26 49 l26 37 -26 -30
c-25 -28 -86 -135 -86 -152 0 -4 12 5 28 19 23 21 129 78 146 78 3 0 0 -16 -7
-35 -15 -43 -84 -115 -159 -167 -60 -40 -65 -41 -47 -5 7 12 8 19 4 15 -11
-11 -45 10 -45 28 0 8 11 36 25 63 23 43 25 53 15 94 -5 25 -7 53 -4 61 4 10
-1 18 -11 22 -27 11 -37 -9 -22 -40 17 -32 11 -110 -11 -143 -16 -25 -9 -118
9 -108 5 4 9 -10 9 -29 0 -27 -7 -40 -32 -60 -18 -14 -29 -26 -24 -26 6 0 20
10 33 22 l24 22 -8 -164 c-4 -91 -8 -336 -8 -545 l0 -380 25 0 25 0 7 305 c4
168 11 342 16 388 4 45 6 85 3 87 -2 3 -16 5 -29 5 l-25 0 6 107 c4 58 7 134
7 167 l0 61 48 30 c26 16 92 72 147 125 95 91 97 92 40 26 -33 -37 -91 -98
-130 -134 -38 -37 -61 -60 -51 -52 11 8 20 14 20 12 2 -5 38 8 69 25 15 8 35
12 43 9 7 -3 14 -1 14 4 0 6 6 10 13 10 8 0 53 38 100 85 86 85 102 94 137 75
16 -8 18 -8 14 5 -3 8 -10 12 -15 9 -5 -3 -9 0 -9 6 0 6 -4 8 -10 5 -5 -3 -10
-2 -10 3 0 25 37 20 90 -11 56 -34 57 -34 52 -10 -2 13 4 45 14 71 28 71 24
153 -10 237 -45 110 -55 113 -49 15z"/>
<path d="M2050 4026 c0 -2 8 -10 18 -17 15 -13 16 -12 3 4 -13 16 -21 21 -21
13z"/>
<path d="M3029 3993 c-13 -16 -12 -17 4 -4 16 13 21 21 13 21 -2 0 -10 -8 -17
-17z"/>
<path d="M2979 3933 l-24 -28 28 24 c25 23 32 31 24 31 -2 0 -14 -12 -28 -27z"/>
<path d="M2325 3900 c-3 -5 -3 -10 1 -10 4 0 1 -6 -8 -12 -25 -21 -50 -113
-46 -173 l3 -54 -25 22 c-17 15 -16 12 5 -11 l30 -33 6 -167 c3 -92 12 -239
19 -327 7 -88 10 -229 8 -312 -5 -157 4 -206 15 -85 10 95 8 280 -3 397 -5 55
-12 186 -16 290 l-7 190 26 12 c33 15 35 45 7 91 -28 46 -26 104 4 137 25 27
25 55 1 55 -8 0 -17 -4 -20 -10z m13 -238 c-2 -9 -12 -17 -23 -17 -16 0 -21 9
-25 40 -9 70 0 82 27 35 13 -22 23 -48 21 -58z"/>
<path d="M2735 3873 c-3 -21 -21 -85 -39 -143 -19 -58 -36 -125 -39 -150 -6
-43 -6 -43 9 10 8 30 28 96 44 145 29 89 47 175 37 175 -2 0 -8 -17 -12 -37z"/>
<path d="M2000 3891 c0 -6 8 -11 18 -11 28 0 34 -11 14 -27 -15 -13 -15 -13 5
-4 12 6 24 7 27 2 3 -5 15 -11 25 -14 19 -5 19 -3 5 18 -8 13 -26 26 -39 29
-13 3 -30 9 -39 12 -9 3 -16 1 -16 -5z"/>
<path d="M2717 3621 c-10 -24 -16 -46 -13 -48 8 -8 37 57 34 75 -2 11 -10 0
-21 -27z"/>
<path d="M1604 3588 l-29 -33 33 29 c30 28 37 36 29 36 -2 0 -16 -15 -33 -32z"/>
<path d="M2320 3576 c0 -2 8 -10 18 -17 15 -13 16 -12 3 4 -13 16 -21 21 -21
13z"/>
<path d="M3561 3534 c0 -11 3 -14 6 -6 3 7 2 16 -1 19 -3 4 -6 -2 -5 -13z"/>
<path d="M1502 3491 c-7 -19 -10 -36 -7 -39 6 -7 26 49 22 62 -2 6 -9 -5 -15
-23z"/>
<path d="M2704 3446 c-32 -30 -56 -57 -53 -60 8 -8 105 69 113 90 12 31 0 24
-60 -30z"/>
<path d="M3664 3418 l-19 -23 23 19 c12 11 22 21 22 23 0 8 -8 2 -26 -19z"/>
<path d="M3691 3398 c-15 -43 -8 -45 12 -3 9 19 13 35 8 35 -5 0 -14 -14 -20
-32z"/>
<path d="M1465 3380 c10 -11 20 -20 23 -20 3 0 -3 9 -13 20 -10 11 -20 20 -23
20 -3 0 3 -9 13 -20z"/>
<path d="M3621 3334 c0 -11 3 -14 6 -6 3 7 2 16 -1 19 -3 4 -6 -2 -5 -13z"/>
<path d="M3661 3305 c-7 -28 -15 -56 -17 -62 -8 -27 16 -11 30 20 11 22 13 41
8 62 -8 29 -8 28 -21 -20z"/>
<path d="M3751 3326 c-2 -30 128 -436 139 -436 5 0 1 21 -7 48 -8 26 -21 67
-28 92 -21 71 -104 306 -104 296z"/>
<path d="M3612 3265 c0 -16 2 -22 5 -12 2 9 2 23 0 30 -3 6 -5 -1 -5 -18z"/>
<path d="M2743 3155 c0 -27 2 -38 4 -22 2 15 2 37 0 50 -2 12 -4 0 -4 -28z"/>
<path d="M3602 3130 c0 -19 2 -27 5 -17 2 9 2 25 0 35 -3 9 -5 1 -5 -18z"/>
<path d="M2732 3050 c0 -14 2 -19 5 -12 2 6 2 18 0 25 -3 6 -5 1 -5 -13z"/>
<path d="M3592 3000 c0 -14 2 -19 5 -12 2 6 2 18 0 25 -3 6 -5 1 -5 -13z"/>
<path d="M3577 2964 c-4 -4 -7 -23 -6 -43 l1 -36 9 33 c11 36 9 58 -4 46z"/>
<path d="M3576 2855 c-3 -9 -5 -49 -4 -88 l1 -72 7 85 c6 92 6 100 -4 75z"/>
<path d="M1546 2285 c4 -38 8 -72 10 -74 8 -9 2 105 -7 124 -6 13 -7 -4 -3
-50z"/>
<path d="M4050 2328 c0 -4 11 -53 24 -110 60 -255 94 -506 108 -802 16 -326
-1 -498 -51 -514 -10 -3 -12 0 -8 12 6 16 5 16 -15 1 -29 -20 -59 -20 -51 0 4
12 -4 10 -30 -7 -20 -13 -36 -27 -37 -31 0 -8 65 -4 118 7 32 7 28 -22 -5 -35
-16 -6 -100 -11 -191 -12 -135 0 -162 -3 -157 -15 3 -7 5 -36 5 -62 0 -40 4
-52 21 -60 29 -16 296 -17 311 -2 7 7 17 12 23 12 14 0 69 101 102 190 21 56
25 84 28 215 1 82 -1 175 -6 205 -4 30 -11 82 -14 115 -4 33 -13 101 -21 150
-8 50 -19 123 -24 162 -15 118 -21 154 -31 180 -5 13 -14 57 -20 96 -16 102
-79 346 -79 305z"/>
<path d="M2503 2135 c0 -22 2 -30 4 -17 2 12 2 30 0 40 -3 9 -5 -1 -4 -23z"/>
<path d="M1441 2134 c0 -11 3 -14 6 -6 3 7 2 16 -1 19 -3 4 -6 -2 -5 -13z"/>
<path d="M1543 2075 c0 -27 2 -38 4 -22 2 15 2 37 0 50 -2 12 -4 0 -4 -28z"/>
<path d="M1432 1975 c0 -16 2 -22 5 -12 2 9 2 23 0 30 -3 6 -5 -1 -5 -18z"/>
<path d="M1528 1940 c-4 -30 -8 -100 -8 -155 0 -55 -5 -116 -11 -135 -5 -19
-12 -44 -14 -55 -6 -36 -45 -129 -64 -156 -11 -14 -22 -48 -25 -75 -3 -27 -2
-39 2 -27 7 22 44 55 73 66 13 4 19 -4 28 -39 15 -57 -4 -147 -53 -264 -40
-95 -46 -128 -17 -92 36 42 37 23 5 -57 -11 -27 -17 -31 -28 -22 -8 7 -15 8
-18 2 -1 -5 -16 -13 -33 -17 -21 -4 -27 -3 -20 4 6 5 19 12 30 15 19 4 18 5
-2 6 -12 0 -28 -6 -37 -14 -21 -22 -27 -19 -20 13 l6 27 -14 -24 c-7 -13 -16
-23 -21 -22 -15 3 -35 -24 -26 -35 5 -6 6 -19 3 -29 -7 -16 -17 -17 -106 -12
l-99 6 7 -72 c3 -40 10 -76 14 -80 8 -9 207 -11 280 -3 25 3 48 5 52 5 7 1 33
52 42 86 3 11 12 79 21 150 8 72 22 164 30 205 8 41 19 167 25 280 12 228 10
613 -2 520z m-129 -1062 c-10 -19 -60 -32 -101 -26 -21 2 -24 7 -18 23 6 17
17 20 68 20 53 0 59 -2 51 -17z"/>
<path d="M3245 1924 l-30 -26 33 22 c17 12 32 23 32 26 0 7 -4 5 -35 -22z"/>
<path d="M1424 1908 c-8 -39 -8 -171 1 -199 12 -35 26 -21 18 19 -4 20 -7 76
-7 125 0 48 -1 87 -2 87 -1 0 -6 -15 -10 -32z"/>
<path d="M1922 1915 c4 -4 0 -14 -10 -21 -9 -7 -14 -15 -11 -18 3 -3 14 2 23
13 14 15 15 21 4 27 -7 4 -10 4 -6 -1z"/>
<path d="M1381 1894 c0 -11 3 -14 6 -6 3 7 2 16 -1 19 -3 4 -6 -2 -5 -13z"/>
<path d="M3159 1863 c-13 -16 -12 -17 4 -4 16 13 21 21 13 21 -2 0 -10 -8 -17
-17z"/>
<path d="M3330 1878 c0 -4 4 -18 10 -32 8 -21 6 -27 -10 -36 -11 -6 -20 -17
-20 -24 0 -21 111 -235 162 -312 25 -38 61 -97 79 -132 29 -56 31 -66 20 -85
-13 -21 -13 -21 5 -4 16 15 17 21 7 48 -10 25 -9 35 3 55 16 23 12 84 -6 84
-4 0 -15 16 -24 35 -9 19 -21 35 -26 35 -6 0 -9 3 -8 8 4 11 -42 82 -53 82 -5
0 -8 3 -7 8 1 4 -28 68 -65 142 -37 74 -67 132 -67 128z m230 -518 c6 -11 8
-20 6 -20 -3 0 -10 9 -16 20 -6 11 -8 20 -6 20 3 0 10 -9 16 -20z"/>
<path d="M1371 1854 c0 -11 3 -14 6 -6 3 7 2 16 -1 19 -3 4 -6 -2 -5 -13z"/>
<path d="M1990 1866 c0 -2 8 -10 18 -17 15 -13 16 -12 3 4 -13 16 -21 21 -21
13z"/>
<path d="M1362 1800 c0 -14 2 -19 5 -12 2 6 2 18 0 25 -3 6 -5 1 -5 -13z"/>
<path d="M2035 1791 c-3 -17 -6 -34 -5 -37 1 -4 -4 -11 -12 -15 -10 -7 -9 -9
4 -9 11 0 18 12 23 41 8 48 0 64 -10 20z"/>
<path d="M1766 1719 c-32 -48 -89 -128 -128 -176 -94 -120 -98 -128 -88 -193
4 -30 8 -44 9 -30 1 15 38 71 97 145 96 119 172 228 195 279 11 23 10 29 -7
45 -20 18 -21 17 -78 -70z"/>
<path d="M1352 1750 c0 -14 2 -19 5 -12 2 6 2 18 0 25 -3 6 -5 1 -5 -13z"/>
<path d="M2480 1755 c-7 -9 -11 -17 -9 -20 3 -2 10 5 17 15 14 24 10 26 -8 5z"/>
<path d="M1337 1655 c-4 -27 -12 -75 -17 -105 -12 -76 -12 -170 0 -170 6 0 10
31 10 72 0 39 5 99 11 133 6 34 9 75 7 91 -3 23 -5 18 -11 -21z"/>
<path d="M1452 1645 c0 -16 2 -22 5 -12 2 9 2 23 0 30 -3 6 -5 -1 -5 -18z"/>
<path d="M1930 1630 c-6 -11 -8 -20 -6 -20 3 0 10 9 16 20 6 11 8 20 6 20 -3
0 -10 -9 -16 -20z"/>
<path d="M2491 1614 c0 -11 3 -14 6 -6 3 7 2 16 -1 19 -3 4 -6 -2 -5 -13z"/>
<path d="M1866 1530 c-25 -38 -44 -70 -41 -70 2 0 22 26 43 58 47 70 54 82 49
82 -2 0 -25 -31 -51 -70z"/>
<path d="M1430 1499 c-12 -22 -20 -45 -18 -50 2 -6 13 12 25 40 26 61 21 67
-7 10z"/>
<path d="M1394 1486 c-3 -8 -4 -23 -2 -33 3 -11 6 -6 9 15 6 34 2 42 -7 18z"/>
<path d="M1794 1428 l-19 -23 23 19 c21 18 27 26 19 26 -2 0 -12 -10 -23 -22z"/>
<path d="M1727 1343 c-42 -56 -87 -123 -75 -113 11 10 128 170 124 170 -3 0
-25 -26 -49 -57z"/>
<path d="M1372 1365 c0 -16 2 -22 5 -12 2 9 2 23 0 30 -3 6 -5 -1 -5 -18z"/>
<path d="M2480 1309 c-6 -11 -10 -25 -7 -32 2 -6 9 3 15 21 12 36 8 42 -8 11z"/>
<path d="M1370 1285 c0 -19 2 -35 4 -35 2 0 6 16 8 35 2 19 0 35 -4 35 -4 0
-8 -16 -8 -35z"/>
<path d="M3420 1306 c0 -2 8 -10 18 -17 15 -13 16 -12 3 4 -13 16 -21 21 -21
13z"/>
<path d="M3450 1266 c0 -2 8 -10 18 -17 15 -13 16 -12 3 4 -13 16 -21 21 -21
13z"/>
<path d="M3500 1205 c13 -14 26 -25 28 -25 3 0 -5 11 -18 25 -13 14 -26 25
-28 25 -3 0 5 -11 18 -25z"/>
<path d="M1630 1205 c-10 -12 -16 -13 -29 -3 -14 12 -14 11 -2 -4 18 -23 28
-23 41 2 13 24 8 26 -10 5z"/>
<path d="M1551 1194 c0 -11 3 -14 6 -6 3 7 2 16 -1 19 -3 4 -6 -2 -5 -13z"/>
<path d="M2449 1164 c-12 -25 -19 -48 -16 -50 2 -2 14 18 25 46 26 63 18 66
-9 4z"/>
<path d="M2271 1169 c-17 -50 -12 -67 9 -29 21 38 25 60 11 60 -5 0 -14 -14
-20 -31z"/>
<path d="M1876 1165 c-3 -9 -6 -24 -5 -33 0 -9 5 -4 10 12 9 32 6 48 -5 21z"/>
<path d="M2120 1170 c0 -8 5 -22 10 -30 9 -13 10 -13 10 0 0 8 -5 22 -10 30
-9 13 -10 13 -10 0z"/>
<path d="M1561 1114 c0 -11 3 -14 6 -6 3 7 2 16 -1 19 -3 4 -6 -2 -5 -13z"/>
<path d="M1331 1094 c0 -11 3 -14 6 -6 3 7 2 16 -1 19 -3 4 -6 -2 -5 -13z"/>
<path d="M1864 1032 c2 -46 8 -88 14 -94 18 -18 14 -27 -10 -22 -22 4 -22 4 1
-6 31 -13 38 -6 22 24 -7 13 -17 59 -21 102 l-9 79 3 -83z"/>
<path d="M1351 1084 c0 -11 3 -14 6 -6 3 7 2 16 -1 19 -3 4 -6 -2 -5 -13z"/>
<path d="M3012 1080 c0 -14 2 -19 5 -12 2 6 2 18 0 25 -3 6 -5 1 -5 -13z"/>
<path d="M3073 1090 c-13 -5 -23 -11 -23 -14 0 -7 40 6 46 15 6 10 6 10 -23
-1z"/>
<path d="M2491 1065 c0 -17 -6 -36 -13 -43 -9 -9 -9 -15 -1 -23 9 -9 13 -3 18
24 4 19 5 43 2 54 -3 11 -5 6 -6 -12z"/>
<path d="M3947 1071 c-24 -15 -29 -27 -33 -67 -5 -63 -27 -127 -40 -114 -6 6
-15 6 -24 0 -12 -8 -12 -10 5 -11 77 -6 79 -5 87 38 4 23 14 56 23 73 9 18 12
29 6 26 -6 -4 -11 -2 -11 3 0 14 37 51 50 51 6 0 10 5 10 10 0 16 -43 11 -73
-9z"/>
<path d="M2006 1072 c-3 -5 8 -19 24 -31 17 -12 30 -17 30 -11 0 5 -5 10 -11
10 -6 0 -8 7 -5 16 5 12 1 14 -15 9 -15 -5 -19 -4 -15 4 4 6 5 11 2 11 -3 0
-7 -4 -10 -8z"/>
<path d="M3452 1048 c-87 -103 -116 -129 -141 -126 -16 2 -25 8 -23 17 2 11 0
12 -10 4 -7 -6 -20 -13 -28 -17 -8 -3 -5 -4 7 -2 12 2 23 0 25 -4 3 -7 94 -22
128 -20 8 0 36 0 61 0 31 0 51 6 60 16 11 14 10 16 -6 14 -46 -5 -49 0 -17 33
45 47 40 62 -6 18 -22 -20 -37 -39 -36 -42 5 -9 -46 -30 -57 -24 -5 4 0 16 11
27 11 12 20 29 20 37 0 8 10 25 22 38 19 20 33 63 20 63 -2 0 -16 -14 -30 -32z
m-71 -111 c-10 -9 -11 -8 -5 6 3 10 9 15 12 12 3 -3 0 -11 -7 -18z"/>
<path d="M1316 1044 c-4 -14 -5 -28 -3 -31 3 -2 8 8 11 23 4 14 5 28 3 31 -3
2 -8 -8 -11 -23z"/>
<path d="M2260 1060 c-8 -5 -12 -12 -8 -15 9 -9 48 4 48 16 0 12 -21 11 -40
-1z"/>
<path d="M2746 1037 c3 -10 9 -15 12 -12 3 3 0 11 -7 18 -10 9 -11 8 -5 -6z"/>
<path d="M2914 1024 c-10 -8 -13 -13 -6 -9 7 4 19 2 27 -5 11 -9 12 -7 8 9 -6
25 -5 25 -29 5z"/>
<path d="M3023 970 c1 -55 2 -56 29 -52 15 2 25 8 22 14 -3 5 6 27 21 50 15
22 22 37 15 33 -6 -4 -22 -24 -36 -46 -25 -41 -45 -52 -38 -21 2 9 0 31 -5 47
-7 26 -8 22 -8 -25z"/>
<path d="M1135 993 c17 -8 40 -25 53 -36 12 -11 22 -16 22 -10 0 13 -72 63
-91 63 -7 -1 0 -8 16 -17z"/>
<path d="M2282 986 c-48 -31 -63 -57 -52 -92 7 -25 8 -26 9 -6 1 16 7 22 25
22 14 0 28 5 31 10 4 7 -2 9 -19 4 -30 -7 -38 15 -8 23 16 4 58 51 50 58 -1 1
-18 -7 -36 -19z"/>
<path d="M2074 973 c-10 -47 -13 -53 -28 -53 -10 0 -12 7 -8 22 3 14 2 19 -6
14 -7 -4 -12 -13 -12 -21 0 -7 -6 -16 -12 -18 -7 -3 6 -6 30 -6 59 -1 57 -2
53 17 -2 9 -3 29 -4 45 0 15 -1 27 -3 27 -2 0 -6 -12 -10 -27z"/>
<path d="M1094 943 c0 -34 4 -43 19 -43 16 0 16 3 4 28 -8 15 -16 34 -19 42
-3 8 -5 -4 -4 -27z"/>
<path d="M2190 969 c0 -5 5 -7 10 -4 6 3 10 8 10 11 0 2 -4 4 -10 4 -5 0 -10
-5 -10 -11z"/>
<path d="M3881 947 c-13 -21 -12 -21 5 -5 10 10 16 20 13 22 -3 3 -11 -5 -18
-17z"/>
<path d="M1786 945 c-10 -7 -15 -18 -11 -24 12 -21 -13 -11 -29 12 -16 22 -16
22 -4 -5 6 -16 16 -28 23 -28 16 0 41 22 48 43 8 20 -1 21 -27 2z"/>
<path d="M2380 951 c0 -6 4 -13 10 -16 6 -3 7 1 4 9 -7 18 -14 21 -14 7z"/>
<path d="M1986 935 c-9 -26 -7 -32 5 -12 6 10 9 21 6 23 -2 3 -7 -2 -11 -11z"/>
<path d="M2140 930 c0 -5 5 -10 10 -10 6 0 10 5 10 10 0 6 -4 10 -10 10 -5 0
-10 -4 -10 -10z"/>
<path d="M3122 910 c0 -19 2 -27 5 -17 2 9 2 25 0 35 -3 9 -5 1 -5 -18z"/>
<path d="M2468 923 c7 -3 16 -2 19 1 4 3 -2 6 -13 5 -11 0 -14 -3 -6 -6z"/>
<path d="M2743 923 c26 -2 67 -2 90 0 23 2 2 3 -48 3 -49 0 -68 -1 -42 -3z"/>
<path d="M2948 923 c6 -2 18 -2 25 0 6 3 1 5 -13 5 -14 0 -19 -2 -12 -5z"/>
<path d="M1658 913 c7 -3 16 -2 19 1 4 3 -2 6 -13 5 -11 0 -14 -3 -6 -6z"/>
<path d="M2378 913 c12 -2 32 -2 45 0 12 2 2 4 -23 4 -25 0 -35 -2 -22 -4z"/>
<path d="M1150 900 c0 -5 5 -10 11 -10 5 0 7 5 4 10 -3 6 -8 10 -11 10 -2 0
-4 -4 -4 -10z"/>
<path d="M2467 893 c-4 -3 -7 -11 -7 -17 0 -6 5 -5 12 2 6 6 9 14 7 17 -3 3
-9 2 -12 -2z"/>
<path d="M3451 874 c0 -11 3 -14 6 -6 3 7 2 16 -1 19 -3 4 -6 -2 -5 -13z"/>
<path d="M1985 860 c-38 -4 -132 -8 -208 -9 l-138 -1 6 -57 c4 -32 9 -66 11
-75 7 -26 69 -31 266 -23 l179 7 -3 82 c-3 93 4 88 -113 76z"/>
<path d="M2420 849 c-22 -18 -22 -19 -3 -10 12 6 25 16 28 21 9 15 3 12 -25
-11z"/>
<path d="M2842 791 c-14 -47 -13 -54 6 -42 9 5 12 23 10 47 l-3 39 -13 -44z"/>
</g>
</svg>